<?xml version="1.0" standalone="no"?>
<!DOCTYPE svg PUBLIC "-//W3C//DTD SVG 20010904//EN"
 "http://www.w3.org/TR/2001/REC-SVG-20010904/DTD/svg10.dtd">
<svg version="1.0" xmlns="http://www.w3.org/2000/svg"
 width="700.000000pt" height="700.000000pt" viewBox="0 0 700.000000 700.000000"
 preserveAspectRatio="xMidYMid meet">
<metadata>
Created by potrace 1.14, written by Peter Selinger 2001-2017
</metadata>
<g transform="translate(0.000000,700.000000) scale(0.100000,-0.100000)"
fill="#000000" stroke="none">
<path d="M3259 6926 c-2 -2 -40 -7 -83 -10 -44 -4 -96 -9 -115 -12 -20 -3 -49
-7 -66 -9 -941 -134 -1817 -691 -2352 -1495 -311 -466 -510 -1024 -560 -1570
-16 -171 -8 -665 12 -765 2 -11 7 -42 10 -70 7 -63 40 -225 66 -330 284 -1137
1146 -2062 2262 -2426 184 -61 436 -120 567 -134 30 -4 60 -8 67 -10 83 -27
736 -27 868 0 11 2 40 7 65 10 25 3 56 7 70 10 14 3 43 8 65 11 80 12 318 75
449 118 777 260 1437 789 1857 1488 260 432 426 937 476 1444 16 157 7 688
-12 764 -2 8 -7 35 -10 60 -29 227 -109 524 -207 770 -315 791 -924 1446
-1693 1819 -334 163 -744 283 -1075 316 -36 4 -76 9 -90 12 -29 6 -565 15
-571 9z m531 -411 c301 -41 279 -38 416 -70 287 -68 598 -195 854 -350 88 -53
229 -148 268 -180 9 -8 33 -27 53 -42 194 -152 409 -375 567 -591 319 -433
524 -983 569 -1527 14 -167 8 -514 -12 -631 -2 -16 -12 -74 -20 -129 -59 -372
-204 -756 -414 -1093 -366 -588 -935 -1043 -1581 -1264 -196 -67 -340 -100
-613 -143 -126 -20 -478 -27 -637 -12 -721 65 -1368 368 -1879 877 -509 507
-818 1171 -878 1885 -16 185 -7 516 17 670 5 33 12 78 15 100 39 263 166 632
311 905 168 316 441 659 694 871 36 30 67 57 70 60 3 3 48 37 100 77 246 183
540 338 835 439 169 58 397 112 540 129 27 4 52 8 55 9 3 2 52 6 110 10 58 4
107 9 109 11 6 5 402 -4 451 -11z"/>
<path d="M5220 4945 l-165 -52 -1177 -1 -1178 0 -550 -233 -550 -233 0 -181 0
-181 132 -56 c73 -30 321 -135 551 -233 l418 -177 1177 0 1177 1 160 -51 c88
-28 166 -53 173 -55 9 -4 12 56 12 280 l0 285 -167 -54 -168 -54 -1183 0
-1182 0 -193 79 c-105 43 -268 109 -360 146 -100 41 -163 72 -155 76 7 4 171
73 365 153 l352 146 1188 -2 1188 -3 155 -53 c85 -28 156 -52 158 -52 1 0 2
126 2 280 0 154 -3 280 -7 279 -5 0 -82 -24 -173 -54z"/>
<path d="M1623 3112 l-23 -3 0 -645 0 -644 1900 0 1900 0 -2 646 -3 646 -1875
2 c-1031 0 -1885 0 -1897 -2z m3432 -642 l0 -300 -1555 0 -1556 0 0 300 0 300
1556 0 1555 0 0 -300z"/>
<path d="M4205 2524 c6 -81 11 -98 25 -89 16 10 36 165 21 165 -9 0 -15 -39
-14 -87 1 -7 -3 -10 -8 -7 -5 3 -9 23 -9 44 0 21 -5 42 -11 46 -8 4 -9 -17 -4
-72z"/>
<path d="M4270 2520 c0 -44 3 -80 8 -81 4 0 15 -2 25 -4 15 -3 17 6 17 81 0
83 0 84 -25 84 -25 0 -25 -1 -25 -80z m35 -6 c-4 -79 -15 -80 -15 0 0 37 4 65
9 62 5 -3 7 -31 6 -62z"/>
<path d="M4342 2518 c3 -68 6 -82 20 -84 23 -3 34 14 14 22 -12 5 -14 19 -10
75 5 59 3 69 -11 69 -13 0 -15 -12 -13 -82z"/>
<path d="M4409 2598 c-1 -2 -2 -38 -4 -80 l-3 -78 30 0 c19 0 28 4 25 13 -2 6
-9 11 -15 10 -16 -4 -21 36 -6 51 17 18 18 26 1 26 -7 0 -13 9 -14 20 -1 14 4
20 18 20 10 0 19 5 19 10 0 8 -48 15 -51 8z"/>
<path d="M4477 2591 c-3 -5 -2 -68 2 -141 l2 -25 14 25 c10 18 14 20 15 8 0
-9 5 -20 11 -24 9 -5 10 4 4 32 -8 43 -8 43 -2 95 4 33 2 37 -19 37 -14 0 -26
-3 -27 -7z m30 -31 c1 -10 -1 -21 -6 -24 -4 -3 -8 8 -9 25 -1 33 10 32 15 -1z"/>
<path d="M4543 2521 c2 -58 6 -81 15 -81 8 0 11 11 8 35 -3 19 0 35 5 35 5 0
9 -18 9 -40 0 -22 5 -40 10 -40 6 0 10 33 10 79 0 44 -4 83 -10 86 -10 6 -14
-13 -10 -49 1 -11 -3 -16 -10 -11 -6 4 -10 18 -8 33 2 14 -2 27 -9 29 -8 3
-11 -19 -10 -76z"/>
</g>
</svg>
